<mxfile host="Electron" agent="Mozilla/5.0 (Windows NT 10.0; Win64; x64) AppleWebKit/537.36 (KHTML, like Gecko) draw.io/28.0.6 Chrome/138.0.7204.100 Electron/37.2.3 Safari/537.36" version="28.0.6">
  <diagram name="Message Translator Pattern" id="hSLeXp8D4B465JAbpXnK">
    <mxGraphModel dx="2978" dy="1778" grid="1" gridSize="10" guides="1" tooltips="1" connect="1" arrows="1" fold="1" page="1" pageScale="1" pageWidth="2336" pageHeight="1654" math="0" shadow="0">
      <root>
        <mxCell id="0" />
        <mxCell id="1" parent="0" />
        <mxCell id="lwAvNX4n_n1KdyO2GL06-1" value="MESSAGE TRANSLATOR PATTERN - TRANSFORMACIÓN DATOS LEGACY SERVICIUDAD" style="rounded=1;whiteSpace=wrap;html=1;fillColor=#e1d5e7;strokeColor=#9673a6;fontSize=18;fontStyle=1;" vertex="1" parent="1">
          <mxGeometry x="408" y="165" width="1520" height="60" as="geometry" />
        </mxCell>
        <mxCell id="lwAvNX4n_n1KdyO2GL06-2" value="FORMATOS DE DATOS SISTEMAS LEGACY" style="rounded=1;whiteSpace=wrap;html=1;fillColor=#f8cecc;strokeColor=#b85450;fontSize=16;fontStyle=1;" vertex="1" parent="1">
          <mxGeometry x="428" y="245" width="480" height="40" as="geometry" />
        </mxCell>
        <mxCell id="lwAvNX4n_n1KdyO2GL06-3" value="Mainframe IBM Z - EBCDIC" style="rounded=1;whiteSpace=wrap;html=1;fillColor=#f8cecc;strokeColor=#b85450;fontSize=14;fontStyle=1;" vertex="1" parent="1">
          <mxGeometry x="428" y="305" width="220" height="30" as="geometry" />
        </mxCell>
        <mxCell id="lwAvNX4n_n1KdyO2GL06-4" value="Registro COBOL (EBCDIC):&#xa;01 CLIENTE-ENERGIA.&#xa;   05 COD-CLIENTE     PIC X(10).&#xa;   05 NOM-CLIENTE     PIC X(50).&#xa;   05 SALDO-ENERGIA   PIC 9(12)V99.&#xa;   05 ESTADO          PIC X(1).&#xa;   05 FECHA-ULT-PAGO  PIC 9(8).&#xa;&#xa;Ejemplo binario EBCDIC:&#xa;F0F0F0F1F2F3...D1D6C8C5..." style="rounded=1;whiteSpace=wrap;html=1;fillColor=#f8cecc;strokeColor=#b85450;align=left;fontFamily=monospace;fontSize=11;" vertex="1" parent="1">
          <mxGeometry x="428" y="345" width="220" height="160" as="geometry" />
        </mxCell>
        <mxCell id="lwAvNX4n_n1KdyO2GL06-5" value="Oracle Solaris - Fixed Width" style="rounded=1;whiteSpace=wrap;html=1;fillColor=#f8cecc;strokeColor=#b85450;fontSize=14;fontStyle=1;" vertex="1" parent="1">
          <mxGeometry x="688" y="305" width="220" height="30" as="geometry" />
        </mxCell>
        <mxCell id="lwAvNX4n_n1KdyO2GL06-6" value="Archivo Fixed Width (PL/SQL Export):&#xa;0000012345JUAN CARLOS RODRIGUEZ MESA    000000150000A20241201&#xa;0000023456MARIA FERNANDA LOPEZ GARCIA   000000080000A20241201&#xa;0000034567CARLOS EDUARDO MARTINEZ RUIZ  000000000000I20241130&#xa;&#xa;Campos:&#xa;Pos 1-10:   Código Cliente&#xa;Pos 11-50:  Nombre Cliente&#xa;Pos 51-62:  Saldo (12 dígitos)&#xa;Pos 63:     Estado (A/I)&#xa;Pos 64-71:  Fecha última consulta" style="rounded=1;whiteSpace=wrap;html=1;fillColor=#f8cecc;strokeColor=#b85450;align=left;fontFamily=monospace;fontSize=11;" vertex="1" parent="1">
          <mxGeometry x="688" y="345" width="220" height="230" as="geometry" />
        </mxCell>
        <mxCell id="lwAvNX4n_n1KdyO2GL06-7" value="MESSAGE TRANSLATORS (CAPA ANTICORRUPCIÓN)" style="rounded=1;whiteSpace=wrap;html=1;fillColor=#d5e8d4;strokeColor=#82b366;fontSize=16;fontStyle=1;" vertex="1" parent="1">
          <mxGeometry x="988" y="245" width="480" height="40" as="geometry" />
        </mxCell>
        <mxCell id="lwAvNX4n_n1KdyO2GL06-8" value="EBCDIC to JSON Translator" style="rounded=1;whiteSpace=wrap;html=1;fillColor=#d5e8d4;strokeColor=#82b366;fontSize=14;fontStyle=1;" vertex="1" parent="1">
          <mxGeometry x="988" y="305" width="220" height="30" as="geometry" />
        </mxCell>
        <mxCell id="lwAvNX4n_n1KdyO2GL06-9" value="@Component&#xa;public class ServiCiudadEbcdicTranslator {&#xa;    &#xa;    @Autowired&#xa;    private EbcdicDecoder ebcdicDecoder;&#xa;    &#xa;    public ClienteEnergiaDTO translate(&#xa;        byte[] mainframeData) {&#xa;        &#xa;        // Decodificar EBCDIC IBM Z a ASCII&#xa;        String asciiData = ebcdicDecoder&#xa;            .decode(mainframeData);&#xa;        &#xa;        // Parsear campos COBOL específicos&#xa;        return ClienteEnergiaDTO.builder()&#xa;            .codigoServiCiudad(asciiData&#xa;                .substring(0,10))&#xa;            .nombreCompleto(asciiData&#xa;                .substring(10,60).trim())&#xa;            .saldoEnergia(parseCurrencyCOP(&#xa;                asciiData.substring(60,74)))&#xa;            .estadoServicio(parseEstado(&#xa;                asciiData.charAt(74)))&#xa;            .fechaUltimoPago(parseDate(&#xa;                asciiData.substring(75,83)))&#xa;            .build();&#xa;    }&#xa;}" style="rounded=1;whiteSpace=wrap;html=1;fillColor=#d5e8d4;strokeColor=#82b366;align=left;fontFamily=monospace;fontSize=9;" vertex="1" parent="1">
          <mxGeometry x="988" y="345" width="220" height="340" as="geometry" />
        </mxCell>
        <mxCell id="lwAvNX4n_n1KdyO2GL06-10" value="Fixed Width to JSON Translator" style="rounded=1;whiteSpace=wrap;html=1;fillColor=#d5e8d4;strokeColor=#82b366;fontSize=14;fontStyle=1;" vertex="1" parent="1">
          <mxGeometry x="1248" y="305" width="220" height="30" as="geometry" />
        </mxCell>
        <mxCell id="lwAvNX4n_n1KdyO2GL06-11" value="@Component&#xa;public class FixedWidthToJsonTranslator {&#xa;    &#xa;    private final FixedWidthParser parser;&#xa;    &#xa;    public ClienteAcueductoDTO translate(&#xa;        String fixedWidthLine) {&#xa;        &#xa;        return ClienteAcueductoDTO.builder()&#xa;            .codigo(parser.extractField(&#xa;                fixedWidthLine, 1, 10))&#xa;            .nombre(parser.extractField(&#xa;                fixedWidthLine, 11, 50)&#xa;                .trim())&#xa;            .saldoAcueducto(&#xa;                parseCurrency(parser&#xa;                .extractField(fixedWidthLine, &#xa;                51, 62)))&#xa;            .estado(fixedWidthLine.charAt(62))&#xa;            .fechaUltimaConsulta(parseDate(&#xa;                parser.extractField(&#xa;                fixedWidthLine, 64, 71)))&#xa;            .build();&#xa;    }&#xa;}" style="rounded=1;whiteSpace=wrap;html=1;fillColor=#d5e8d4;strokeColor=#82b366;align=left;fontFamily=monospace;fontSize=10;" vertex="1" parent="1">
          <mxGeometry x="1248" y="345" width="220" height="340" as="geometry" />
        </mxCell>
        <mxCell id="lwAvNX4n_n1KdyO2GL06-12" value="SALIDA JSON UNIFICADA" style="rounded=1;whiteSpace=wrap;html=1;fillColor=#fff2cc;strokeColor=#d6b656;fontSize=16;fontStyle=1;" vertex="1" parent="1">
          <mxGeometry x="1548" y="245" width="360" height="40" as="geometry" />
        </mxCell>
        <mxCell id="lwAvNX4n_n1KdyO2GL06-13" value="Cliente Energía JSON:" style="rounded=1;whiteSpace=wrap;html=1;fillColor=#fff2cc;strokeColor=#d6b656;fontSize=14;fontStyle=1;" vertex="1" parent="1">
          <mxGeometry x="1548" y="305" width="170" height="30" as="geometry" />
        </mxCell>
        <mxCell id="lwAvNX4n_n1KdyO2GL06-14" value="{&#xa;  &quot;codigo&quot;: &quot;0000012345&quot;,&#xa;  &quot;nombre&quot;: &quot;Juan Carlos Rodriguez&quot;,&#xa;  &quot;saldoEnergia&quot;: 150000.00,&#xa;  &quot;estado&quot;: &quot;ACTIVO&quot;,&#xa;  &quot;fechaUltimoPago&quot;: &quot;2024-12-01&quot;,&#xa;  &quot;tipoServicio&quot;: &quot;ENERGIA&quot;,&#xa;  &quot;timestamp&quot;: &quot;2024-12-15T10:30:00Z&quot;&#xa;}" style="rounded=1;whiteSpace=wrap;html=1;fillColor=#fff2cc;strokeColor=#d6b656;align=left;fontFamily=monospace;fontSize=10;" vertex="1" parent="1">
          <mxGeometry x="1548" y="345" width="170" height="160" as="geometry" />
        </mxCell>
        <mxCell id="lwAvNX4n_n1KdyO2GL06-15" value="Cliente Acueducto JSON:" style="rounded=1;whiteSpace=wrap;html=1;fillColor=#fff2cc;strokeColor=#d6b656;fontSize=14;fontStyle=1;" vertex="1" parent="1">
          <mxGeometry x="1738" y="305" width="170" height="30" as="geometry" />
        </mxCell>
        <mxCell id="lwAvNX4n_n1KdyO2GL06-16" value="{&#xa;  &quot;codigo&quot;: &quot;0000023456&quot;,&#xa;  &quot;nombre&quot;: &quot;Maria Fernanda Lopez&quot;,&#xa;  &quot;saldoAcueducto&quot;: 80000.00,&#xa;  &quot;estado&quot;: &quot;ACTIVO&quot;,&#xa;  &quot;fechaUltimaConsulta&quot;: &quot;2024-12-01&quot;,&#xa;  &quot;tipoServicio&quot;: &quot;ACUEDUCTO&quot;,&#xa;  &quot;timestamp&quot;: &quot;2024-12-15T10:30:00Z&quot;&#xa;}" style="rounded=1;whiteSpace=wrap;html=1;fillColor=#fff2cc;strokeColor=#d6b656;align=left;fontFamily=monospace;fontSize=10;" vertex="1" parent="1">
          <mxGeometry x="1738" y="345" width="170" height="160" as="geometry" />
        </mxCell>
        <mxCell id="lwAvNX4n_n1KdyO2GL06-17" value="FLUJO DE TRANSFORMACIÓN" style="rounded=1;whiteSpace=wrap;html=1;fillColor=#e1d5e7;strokeColor=#9673a6;fontSize=16;fontStyle=1;" vertex="1" parent="1">
          <mxGeometry x="428" y="767" width="1480" height="40" as="geometry" />
        </mxCell>
        <mxCell id="lwAvNX4n_n1KdyO2GL06-18" value="1. EXTRACCIÓN DE DATOS" style="rounded=1;whiteSpace=wrap;html=1;fillColor=#f8cecc;strokeColor=#b85450;fontSize=14;fontStyle=1;" vertex="1" parent="1">
          <mxGeometry x="428" y="827" width="300" height="30" as="geometry" />
        </mxCell>
        <mxCell id="lwAvNX4n_n1KdyO2GL06-19" value="Mainframe (3270 Terminal Emulation):&#xa;• JCL batch jobs ejecutados nocturnamente&#xa;• Salida a datasets EBCDIC&#xa;• Transferencia vía FTP a staging area&#xa;&#xa;Oracle (PL/SQL Procedures):&#xa;• UTL_FILE para generar archivos planos&#xa;• SPOOL files con formato fixed-width&#xa;• Cron job Linux para recolección" style="rounded=1;whiteSpace=wrap;html=1;fillColor=#f8cecc;strokeColor=#b85450;align=left;fontSize=11;" vertex="1" parent="1">
          <mxGeometry x="428" y="867" width="300" height="135" as="geometry" />
        </mxCell>
        <mxCell id="lwAvNX4n_n1KdyO2GL06-20" value="2. TRANSFORMACIÓN" style="rounded=1;whiteSpace=wrap;html=1;fillColor=#d5e8d4;strokeColor=#82b366;fontSize=14;fontStyle=1;" vertex="1" parent="1">
          <mxGeometry x="768" y="827" width="300" height="30" as="geometry" />
        </mxCell>
        <mxCell id="lwAvNX4n_n1KdyO2GL06-21" value="Message Translator Components:&#xa;• EbcdicDecoder: IBM EBCDIC → ASCII&#xa;• FixedWidthParser: Campo posicional&#xa;• DataTypeConverter: COBOL → Java types&#xa;• ValidationEngine: Reglas de negocio&#xa;• JsonSerializer: DTO → JSON&#xa;&#xa;Error Handling:&#xa;• Invalid data → Dead Letter Queue&#xa;• Parsing errors → Retry with backoff&#xa;• Schema validation → Alert admin" style="rounded=1;whiteSpace=wrap;html=1;fillColor=#d5e8d4;strokeColor=#82b366;align=left;fontSize=11;" vertex="1" parent="1">
          <mxGeometry x="768" y="867" width="300" height="175" as="geometry" />
        </mxCell>
        <mxCell id="lwAvNX4n_n1KdyO2GL06-22" value="3. ENTREGA A MICROSERVICIOS" style="rounded=1;whiteSpace=wrap;html=1;fillColor=#fff2cc;strokeColor=#d6b656;fontSize=14;fontStyle=1;" vertex="1" parent="1">
          <mxGeometry x="1108" y="827" width="300" height="30" as="geometry" />
        </mxCell>
        <mxCell id="lwAvNX4n_n1KdyO2GL06-23" value="Kafka Event Publishing:&#xa;• Topic: cliente-energia-updated&#xa;• Topic: cliente-acueducto-updated&#xa;• Partitioning por código cliente&#xa;• Retention: 168 hours (7 days)&#xa;&#xa;Direct API Calls:&#xa;• Circuit breaker protected&#xa;• Async processing with CompletableFuture&#xa;• Bulk operations for performance&#xa;• Metrics via Micrometer" style="rounded=1;whiteSpace=wrap;html=1;fillColor=#fff2cc;strokeColor=#d6b656;align=left;fontSize=11;" vertex="1" parent="1">
          <mxGeometry x="1108" y="867" width="300" height="175" as="geometry" />
        </mxCell>
        <mxCell id="lwAvNX4n_n1KdyO2GL06-24" value="4. CACHE Y PERSISTENCIA" style="rounded=1;whiteSpace=wrap;html=1;fillColor=#ffe6cc;strokeColor=#d79b00;fontSize=14;fontStyle=1;" vertex="1" parent="1">
          <mxGeometry x="1448" y="827" width="300" height="30" as="geometry" />
        </mxCell>
        <mxCell id="lwAvNX4n_n1KdyO2GL06-25" value="Redis Distributed Cache:&#xa;• TTL: 24 horas para consultas&#xa;• Pattern: cliente:{codigo}:{servicio}&#xa;• Eviction policy: LRU&#xa;• Cluster mode para alta disponibilidad&#xa;&#xa;Database Persistence:&#xa;• PostgreSQL para datos estructurados&#xa;• MongoDB para documentos JSON&#xa;• Event sourcing para auditoría&#xa;• Backup incremental diario" style="rounded=1;whiteSpace=wrap;html=1;fillColor=#ffe6cc;strokeColor=#d79b00;align=left;fontSize=11;" vertex="1" parent="1">
          <mxGeometry x="1448" y="867" width="300" height="175" as="geometry" />
        </mxCell>
        <mxCell id="lwAvNX4n_n1KdyO2GL06-26" value="REGLAS DE TRANSFORMACIÓN Y VALIDACIÓN" style="rounded=1;whiteSpace=wrap;html=1;fillColor=#e1d5e7;strokeColor=#9673a6;fontSize=16;fontStyle=1;" vertex="1" parent="1">
          <mxGeometry x="428" y="1066" width="1480" height="40" as="geometry" />
        </mxCell>
        <mxCell id="lwAvNX4n_n1KdyO2GL06-27" value="REGLAS DE VALIDACIÓN" style="rounded=1;whiteSpace=wrap;html=1;fillColor=#f5f5f5;strokeColor=#666666;fontSize=14;fontStyle=1;" vertex="1" parent="1">
          <mxGeometry x="428" y="1126" width="460" height="30" as="geometry" />
        </mxCell>
        <mxCell id="lwAvNX4n_n1KdyO2GL06-28" value="Validaciones de Datos:&#xa;• Código cliente: 10 dígitos numéricos&#xa;• Saldo: Máximo 999,999,999.99&#xa;• Estado: Solo &#39;A&#39; (Activo) o &#39;I&#39; (Inactivo)&#xa;• Fechas: Formato YYYYMMDD válido&#xa;• Nombres: Sin caracteres especiales EBCDIC&#xa;&#xa;Transformaciones de Negocio:&#xa;• Estado &#39;A&#39; → &#39;ACTIVO&#39;, &#39;I&#39; → &#39;INACTIVO&#39;&#xa;• Saldos negativos → 0.00 (con warning log)&#xa;• Fechas 00000000 → null&#xa;• Nombres vacíos → &#39;CLIENTE SIN NOMBRE&#39;&#xa;• Códigos duplicados → Usar timestamp como tie-breaker" style="rounded=1;whiteSpace=wrap;html=1;fillColor=#f5f5f5;strokeColor=#666666;align=left;fontSize=11;" vertex="1" parent="1">
          <mxGeometry x="428" y="1166" width="460" height="180" as="geometry" />
        </mxCell>
        <mxCell id="lwAvNX4n_n1KdyO2GL06-29" value="OPTIMIZACIONES DE PERFORMANCE" style="rounded=1;whiteSpace=wrap;html=1;fillColor=#f5f5f5;strokeColor=#666666;fontSize=14;fontStyle=1;" vertex="1" parent="1">
          <mxGeometry x="928" y="1126" width="460" height="30" as="geometry" />
        </mxCell>
        <mxCell id="lwAvNX4n_n1KdyO2GL06-30" value="Procesamiento en Paralelo:&#xa;• ThreadPoolExecutor: 8 threads core, 16 max&#xa;• Batch size: 1000 registros por thread&#xa;• Memoria heap: -Xmx2G para JVM&#xa;• NIO2 para lectura de archivos grandes&#xa;&#xa;Streaming Processing:&#xa;• Apache Kafka Streams para real-time&#xa;• Windowing: 5 minutos para agregaciones&#xa;• Checkpointing cada 30 segundos&#xa;• Exactly-once semantics habilitado&#xa;&#xa;Monitoring:&#xa;• Métricas: registros/segundo procesados&#xa;• Alertas: Si latencia &gt; 30 segundos&#xa;• Dashboards: Grafana con estado de pipelines" style="rounded=1;whiteSpace=wrap;html=1;fillColor=#f5f5f5;strokeColor=#666666;align=left;fontSize=11;" vertex="1" parent="1">
          <mxGeometry x="928" y="1166" width="460" height="246" as="geometry" />
        </mxCell>
        <mxCell id="lwAvNX4n_n1KdyO2GL06-31" value="MANEJO DE ERRORES" style="rounded=1;whiteSpace=wrap;html=1;fillColor=#f5f5f5;strokeColor=#666666;fontSize=14;fontStyle=1;" vertex="1" parent="1">
          <mxGeometry x="1428" y="1126" width="460" height="30" as="geometry" />
        </mxCell>
        <mxCell id="lwAvNX4n_n1KdyO2GL06-32" value="Estrategias de Error:&#xa;• Parse Error → Dead Letter Queue (DLQ)&#xa;• Invalid Data → Transformar a default + warning&#xa;• Network Timeout → Retry 3 veces con exponential backoff&#xa;• EBCDIC Corruption → Skip record + alert admin&#xa;• Duplicate Key → Update instead of insert&#xa;&#xa;Recovery Mechanisms:&#xa;• Dead Letter Queue processing job (diario)&#xa;• Manual data correction interface&#xa;• Rollback capability para batch jobs&#xa;• Emergency fallback a último dataset válido&#xa;&#xa;Alerting:&#xa;• Slack notification si error rate &gt; 5%&#xa;• PagerDuty para errores críticos&#xa;• Email digest para administradores" style="rounded=1;whiteSpace=wrap;html=1;fillColor=#f5f5f5;strokeColor=#666666;align=left;fontSize=11;" vertex="1" parent="1">
          <mxGeometry x="1428" y="1166" width="460" height="246" as="geometry" />
        </mxCell>
        <mxCell id="lwAvNX4n_n1KdyO2GL06-33" style="endArrow=classic;html=1;strokeColor=#b85450;strokeWidth=3;exitX=0.75;exitY=1;exitDx=0;exitDy=0;entryX=0.25;entryY=1;entryDx=0;entryDy=0;" edge="1" parent="1" source="lwAvNX4n_n1KdyO2GL06-4" target="lwAvNX4n_n1KdyO2GL06-9">
          <mxGeometry width="50" height="50" relative="1" as="geometry">
            <mxPoint x="648" y="425" as="sourcePoint" />
            <mxPoint x="988" y="425" as="targetPoint" />
            <Array as="points">
              <mxPoint x="593" y="755" />
              <mxPoint x="1043" y="755" />
            </Array>
          </mxGeometry>
        </mxCell>
        <mxCell id="lwAvNX4n_n1KdyO2GL06-34" value="EBCDIC Binary" style="text;html=1;strokeColor=none;fillColor=none;align=center;verticalAlign=middle;whiteSpace=wrap;rounded=0;fontSize=12;fontColor=#b85450;fontStyle=1;" vertex="1" parent="1">
          <mxGeometry x="908" y="735" width="100" height="20" as="geometry" />
        </mxCell>
        <mxCell id="lwAvNX4n_n1KdyO2GL06-35" style="endArrow=classic;html=1;strokeColor=#b85450;strokeWidth=3;exitX=0.75;exitY=1;exitDx=0;exitDy=0;entryX=0.25;entryY=1;entryDx=0;entryDy=0;" edge="1" parent="1" source="lwAvNX4n_n1KdyO2GL06-6" target="lwAvNX4n_n1KdyO2GL06-11">
          <mxGeometry width="50" height="50" relative="1" as="geometry">
            <mxPoint x="908" y="425" as="sourcePoint" />
            <mxPoint x="1248" y="425" as="targetPoint" />
            <Array as="points">
              <mxPoint x="853" y="725" />
              <mxPoint x="1078" y="725" />
              <mxPoint x="1303" y="725" />
            </Array>
          </mxGeometry>
        </mxCell>
        <mxCell id="lwAvNX4n_n1KdyO2GL06-36" value="Fixed Width Text" style="text;html=1;strokeColor=none;fillColor=none;align=center;verticalAlign=middle;whiteSpace=wrap;rounded=0;fontSize=12;fontColor=#b85450;fontStyle=1;" vertex="1" parent="1">
          <mxGeometry x="1168" y="705" width="120" height="20" as="geometry" />
        </mxCell>
        <mxCell id="lwAvNX4n_n1KdyO2GL06-37" style="endArrow=classic;html=1;strokeColor=#82b366;strokeWidth=3;exitX=0.75;exitY=1;exitDx=0;exitDy=0;entryX=0.75;entryY=1;entryDx=0;entryDy=0;" edge="1" parent="1" source="lwAvNX4n_n1KdyO2GL06-9" target="lwAvNX4n_n1KdyO2GL06-14">
          <mxGeometry width="50" height="50" relative="1" as="geometry">
            <mxPoint x="1208" y="385" as="sourcePoint" />
            <mxPoint x="1548" y="385" as="targetPoint" />
            <Array as="points">
              <mxPoint x="1153" y="745" />
              <mxPoint x="1675" y="745" />
            </Array>
          </mxGeometry>
        </mxCell>
        <mxCell id="lwAvNX4n_n1KdyO2GL06-38" value="JSON" style="text;html=1;strokeColor=none;fillColor=none;align=center;verticalAlign=middle;whiteSpace=wrap;rounded=0;fontSize=12;fontColor=#82b366;fontStyle=1;" vertex="1" parent="1">
          <mxGeometry x="1603" y="725" width="60" height="20" as="geometry" />
        </mxCell>
        <mxCell id="lwAvNX4n_n1KdyO2GL06-39" style="endArrow=classic;html=1;strokeColor=#82b366;strokeWidth=3;exitX=0.75;exitY=1;exitDx=0;exitDy=0;entryX=0.75;entryY=1;entryDx=0;entryDy=0;" edge="1" parent="1" source="lwAvNX4n_n1KdyO2GL06-11" target="lwAvNX4n_n1KdyO2GL06-16">
          <mxGeometry width="50" height="50" relative="1" as="geometry">
            <mxPoint x="1468" y="385" as="sourcePoint" />
            <mxPoint x="1738" y="385" as="targetPoint" />
            <Array as="points">
              <mxPoint x="1413" y="755" />
              <mxPoint x="1865" y="755" />
            </Array>
          </mxGeometry>
        </mxCell>
        <mxCell id="lwAvNX4n_n1KdyO2GL06-40" value="JSON" style="text;html=1;strokeColor=none;fillColor=none;align=center;verticalAlign=middle;whiteSpace=wrap;rounded=0;fontSize=12;fontColor=#82b366;fontStyle=1;" vertex="1" parent="1">
          <mxGeometry x="1788" y="735" width="60" height="20" as="geometry" />
        </mxCell>
        <mxCell id="lwAvNX4n_n1KdyO2GL06-41" value="LEYENDA - PATRONES Y TECNOLOGÍAS" style="rounded=1;whiteSpace=wrap;html=1;fillColor=#f5f5f5;strokeColor=#666666;fontSize=16;fontStyle=1;" vertex="1" parent="1">
          <mxGeometry x="428" y="1424" width="1480" height="30" as="geometry" />
        </mxCell>
        <mxCell id="lwAvNX4n_n1KdyO2GL06-42" value="✓ Message Translator Pattern" style="rounded=0;whiteSpace=wrap;html=1;fontSize=12;" vertex="1" parent="1">
          <mxGeometry x="428" y="1464" width="180" height="25" as="geometry" />
        </mxCell>
        <mxCell id="lwAvNX4n_n1KdyO2GL06-43" value="✓ Anti-Corruption Layer" style="rounded=0;whiteSpace=wrap;html=1;fontSize=12;" vertex="1" parent="1">
          <mxGeometry x="628" y="1464" width="180" height="25" as="geometry" />
        </mxCell>
        <mxCell id="lwAvNX4n_n1KdyO2GL06-44" value="✓ Adapter Pattern" style="rounded=0;whiteSpace=wrap;html=1;fontSize=12;" vertex="1" parent="1">
          <mxGeometry x="828" y="1464" width="180" height="25" as="geometry" />
        </mxCell>
        <mxCell id="lwAvNX4n_n1KdyO2GL06-45" value="✓ Stream Processing" style="rounded=0;whiteSpace=wrap;html=1;fontSize=12;" vertex="1" parent="1">
          <mxGeometry x="1028" y="1464" width="180" height="25" as="geometry" />
        </mxCell>
        <mxCell id="lwAvNX4n_n1KdyO2GL06-46" value="🔴 Rojo: Legacy Data | 🟢 Verde: Transformadores | 🟡 Amarillo: JSON Output | 🟠 Naranja: Cache/Storage" style="rounded=0;whiteSpace=wrap;html=1;fontSize=12;" vertex="1" parent="1">
          <mxGeometry x="1228" y="1464" width="680" height="25" as="geometry" />
        </mxCell>
      </root>
    </mxGraphModel>
  </diagram>
</mxfile>
